<svg xmlns="http://www.w3.org/2000/svg" width="24" height="24" viewBox="0 0 24 24">
  <g id="person_black_24dp_1_" data-name="person_black_24dp (1)" transform="translate(-2 -2)">
    <path id="Path_1351" data-name="Path 1351" d="M0,0H24V24H0Z" transform="translate(2 2)" fill="none"/>
    <path id="Path_1352" data-name="Path 1352" d="M16,16a6,6,0,1,0-6-6A6,6,0,0,0,16,16Zm0,3c-4.005,0-12,2.01-12,6v1.5A1.5,1.5,0,0,0,5.5,28h21A1.5,1.5,0,0,0,28,26.5V25C28,21.01,20.005,19,16,19Z" transform="translate(-2 -2)" fill="#434242"/>
  </g>
</svg>
