<svg xmlns="http://www.w3.org/2000/svg" width="5" height="10" viewBox="0 0 5 10">
  <path id="Path_255" data-name="Path 255" d="M654.243,4.906c.13-.135.242-.246.35-.363q1.813-1.955,3.625-3.911a.461.461,0,0,0,.154-.359.381.381,0,0,0-.221-.337.33.33,0,0,0-.378.058.941.941,0,0,0-.081.083l-4.146,4.476a.437.437,0,0,0,0,.694q2.081,2.247,4.161,4.494a.37.37,0,0,0,.412.14.405.405,0,0,0,.18-.617,1.269,1.269,0,0,0-.1-.114l-3.83-4.134C654.335,4.983,654.3,4.955,654.243,4.906Z" transform="translate(658.373 9.902) rotate(180)" fill="#434242"/>
</svg>
