<svg xmlns="http://www.w3.org/2000/svg" width="24" height="24" viewBox="0 0 24 24">
  <g id="shopping_basket_black_24dp" transform="translate(-1)">
    <path id="Path_1353" data-name="Path 1353" d="M0,0H24V24H0Z" transform="translate(1)" fill="none"/>
    <path id="Path_1354" data-name="Path 1354" d="M23.909,10.1H18.684L13.895,2.5a1.057,1.057,0,0,0-1.811,0L7.295,10.1h-5.2A1.129,1.129,0,0,0,1,11.259a1.029,1.029,0,0,0,.044.312L3.815,22.3a2.194,2.194,0,0,0,2.095,1.689H20.091A2.216,2.216,0,0,0,22.2,22.3l2.771-10.727L25,11.259A1.129,1.129,0,0,0,23.909,10.1ZM12.989,5.23,16.055,10.1H9.924ZM13,19.359a2.318,2.318,0,0,1,0-4.629,2.318,2.318,0,0,1,0,4.629Z" transform="translate(0 -0.987)" fill="#434242"/>
  </g>
</svg>
