<svg xmlns="http://www.w3.org/2000/svg" width="186" height="186" viewBox="0 0 186 186">
  <g id="Group_1296" data-name="Group 1296" transform="translate(-1504 -1934)">
    <circle id="دائرة_1" data-name="دائرة 1" cx="93" cy="93" r="93" transform="translate(1504 1934)" fill="#fdf0ea"/>
    <g id="Group_402" data-name="Group 402" transform="translate(1549 1998)">
      <path id="Path_385" data-name="Path 385" d="M1673.951,481c.48-.593.981-1.15,1.864-.822.868.323.948,1.043.957,1.834.015,1.3-.393,2.752.15,3.871.526,1.082,1.755,1.82,2.652,2.73.61.619,1.181,1.275,1.77,1.915l.269-.135c0-1.316-.019-2.633.006-3.949.02-1.068.733-1.713,1.659-1.511.9.2,1.145.876,1.147,1.69.005,1.994.02,3.988-.01,5.981a1.657,1.657,0,0,0,.545,1.3c1.115,1.135,2.176,2.322,3.258,3.489l.27-.173c.141-.923.263-1.851.426-2.77a22.079,22.079,0,0,1,17.556-17.512,22.933,22.933,0,0,1,4.564-.428c5.968.007,11.936-.022,17.9.008a22.208,22.208,0,0,1,21.381,15.294.921.921,0,0,0,1.057.745c2.624-.034,5.249-.031,7.874,0a1.015,1.015,0,0,0,1.115-.7,5.016,5.016,0,0,1,6.646-2.431,4.89,4.89,0,0,1,2.4,6.671,1.055,1.055,0,0,0,.021,1.027,4.881,4.881,0,0,1-2.371,6.61,5.013,5.013,0,0,1-6.711-2.431.953.953,0,0,0-1.037-.663c-2.406.029-4.812.023-7.218,0-.48,0-.722.051-.715.634.032,2.614.014,5.228.014,8.055.609-.593,1.1-1.08,1.6-1.554,1.533-1.453,3.243-1.134,4.142.771a14.945,14.945,0,0,1,1.19,9.816,1.294,1.294,0,0,0,.353,1.321,6.316,6.316,0,0,1,1.611,5.95c-.125.579-.007.689.547.687,1.811-.006,3.629-.059,5.43.08a3.955,3.955,0,0,1,3.681,4.173,4.1,4.1,0,0,1-4.031,3.888c-.312.012-.625.005-.937.005q-42.837,0-85.675.032c-2.562,0-4.428-.712-5.353-3.211v-1.869c1-2.5,2.948-3.254,5.509-3.132,2.429.116,4.868.03,7.3.017.25,0,.561.145.772-.19-.123-.138-.242-.275-.366-.409a15.486,15.486,0,0,1-2.716-16.93c.865-1.923,2.453-2.352,3.9-1.414.026.017.1-.046.176-.081a27.722,27.722,0,0,1,.026-3.443,4.335,4.335,0,0,0-1.881-4.4,2.158,2.158,0,0,0-1.4-.547c-1.872.033-3.745.017-5.618.008a4.287,4.287,0,0,1-1.016-.108,1.356,1.356,0,0,1,.226-2.659c.777-.053,1.559-.029,2.339-.034.6,0,1.193,0,1.793,0-1.247-1.987-2.863-2.993-5.181-2.574-.514.093-1.063-.03-1.589.023a2.624,2.624,0,0,1-2.273-.771v-.935c.714-1.755,2.388-.813,3.674-1.232l-3.674-3.629Zm72.371,33.24c.455-.422.885-.876,1.372-1.258a2.345,2.345,0,0,0,.909-2.088c-.053-4.046-.028-8.093-.021-12.14a18.958,18.958,0,0,0-11.8-17.793c-.223-.1-.442-.217-.669-.311-4.536-1.887-9.3-1.194-14.273-1.349.356.241.473.324.594.4,7.094,4.527,10.772,10.938,10.761,19.388-.007,5.23.014,10.46-.019,15.69,0,.712.2.878.887.869,3.059-.038,6.123-.1,9.177.022A3.211,3.211,0,0,0,1746.322,514.237Zm-48.635-24.006a1.613,1.613,0,0,1,.463,2.292,13.371,13.371,0,0,0-1.35,6.044c.014,5.357,0,10.715.012,16.072,0,.213-.149.5.3.721.566-.612,1.129-1.285,1.762-1.884a1.652,1.652,0,0,0,.583-1.379c-.046-1.213-.024-2.429-.01-3.644.011-1.046.516-1.648,1.361-1.666.882-.019,1.422.605,1.448,1.691.012.481,0,.962,0,1.52,1.732-1.27,3.145-2.562,2.64-4.866a1.575,1.575,0,0,1,0-.466,1.4,1.4,0,1,1,2.8.019c.017.248.01.5.006.747-.073,4.05.531,2.716-2.355,5.633-.285.288-.692.5-.819,1.01.573,0,1.074-.024,1.571,0,1,.057,1.626.654,1.591,1.474-.034.788-.644,1.306-1.617,1.32-1.343.019-2.687.009-4.03,0a1.15,1.15,0,0,0-.936.3c-.65.673-1.316,1.332-2.006,1.962-.346.316-.29.516.021.81,1.019.965,2.029,1.94,3.014,2.94.362.367.541.373.8-.1a6.419,6.419,0,0,1,2.666-2.55c2.575-1.384,2.744-1.56,4-4.312a12.294,12.294,0,0,1,14.421-6.715c.8.2.931.035.92-.722-.039-2.647,0-5.3-.02-7.942a13.342,13.342,0,0,0-3.52-9.2,14.194,14.194,0,0,0-19.815-1.262c-.731.613-1.446.977-2.351.393-.615-1.035-.572-1.591.24-2.3a16.956,16.956,0,0,1,28.263,12.707c.006,3.053,0,6.105.006,9.158,0,.326-.13.707.225.947a21.462,21.462,0,0,1,2.339,2.046,2.588,2.588,0,0,0,.065-.356c0-4.174.038-8.348-.016-12.522a17.952,17.952,0,0,0-3.613-10.8,19.538,19.538,0,0,0-25-5.793c-6.427,3.351-10.018,8.774-10.348,16.077-.182,4.042-.052,8.1-.061,12.146,0,.245-.04.5.167.7.774.748,1.545,1.5,2.478,2.406v-1.117c0-4.33.015-8.66-.005-12.989a16.639,16.639,0,0,1,1.636-7.494C1696.137,490.239,1696.479,490.05,1697.687,490.231Zm24.271,41.434h42.933c.281,0,.563,0,.844,0a1.243,1.243,0,0,0,1.382-1.223c.037-.825-.52-1.219-1.3-1.311a7.214,7.214,0,0,0-.843-.02h-86.145c-1.421,0-2.092.44-2.057,1.34.032.829.688,1.218,2.063,1.218ZM1687,510.165a1.637,1.637,0,0,0-.128.214A12.679,12.679,0,0,0,1691.868,526a1.431,1.431,0,0,0,.767.308q4.594-.007,9.188,0c.3,0,.509-.066.408-.421a3.462,3.462,0,0,0-.814-1.813c-4.607-4.438-9.166-8.926-13.745-13.395C1687.479,510.49,1687.333,510.226,1687,510.165Zm54.589,8.328h-22.458a12.731,12.731,0,0,0,5.121,6.092,9.4,9.4,0,0,0,4.4,1.7c1.679.1,3.369.02,5.054.025a.8.8,0,0,0,.8-.339,13.486,13.486,0,0,1,1.735-1.823C1738.056,522.234,1739.869,520.314,1741.591,518.494Zm-19.867,7.8c-.438-.392-.661-.6-.893-.8a15.161,15.161,0,0,1-4.4-6.163c-.888-2.312.09-3.706,2.6-3.709q4.822-.007,9.645,0c1.147,0,1.147,0,.628-1.035a9.548,9.548,0,0,0-9.9-4.889,9.409,9.409,0,0,0-7.915,7.651.663.663,0,0,0,.4.808c3.1,1.757,4.153,3.977,3.6,7.622-.056.369-.023.519.371.517C1717.723,526.294,1719.589,526.3,1721.724,526.3Zm16.327.013c3.013,0,5.728-.011,8.442.008.56,0,.561-.176.463-.663a6.757,6.757,0,0,1,7.211-8.192c1.462.087,1.526.092,1.641-1.407a11.537,11.537,0,0,0-1.127-6Zm18.4-30.965h-3.65c-1.682,0-1.634,0-1.5,1.678.055.7.277.848.944.838,2.745-.041,5.491-.018,8.237-.017,1.654,0,1.889.187,2.292,1.8a2.083,2.083,0,0,0,1.837,1.716,2.125,2.125,0,0,0,2.216-1.064,1.97,1.97,0,0,0-.285-2.485c-.811-1-.818-1.431,0-2.435a2.053,2.053,0,0,0,.56-1.708,2.188,2.188,0,0,0-2.129-1.861,2.119,2.119,0,0,0-2.205,1.742c-.4,1.6-.651,1.8-2.295,1.8Q1758.461,495.347,1756.449,495.345Zm-47.621,30.963a20.825,20.825,0,0,1,2.521.022c.874.107,1.162-.389,1.372-1.04a4.754,4.754,0,0,0,.132-.826,3.836,3.836,0,0,0-2.178-3.791,4.145,4.145,0,0,0-4.675.718,3.878,3.878,0,0,0-.868,4.288.912.912,0,0,0,.986.642C1707.019,526.274,1707.925,526.309,1708.828,526.309Zm44.721,0c.935,0,1.871-.034,2.8.013a.909.909,0,0,0,.983-.643,3.837,3.837,0,0,0-1.074-4.47,4.115,4.115,0,0,0-5.1-.144,3.86,3.86,0,0,0-1.314,4.485,1.028,1.028,0,0,0,1.177.775C1751.864,526.263,1752.708,526.309,1753.549,526.309Z" transform="translate(-1673.951 -476.501)" fill="#030202"/>
      <path id="Path_386" data-name="Path 386" d="M1773.614,515.12c.9.586,1.619.221,2.351-.394a14.167,14.167,0,0,1,19.818,1.266,13.4,13.4,0,0,1,3.52,9.233c.025,2.655-.019,5.312.021,7.967.011.759-.123.925-.92.724a12.285,12.285,0,0,0-14.423,6.736c-1.256,2.76-1.426,2.937-4,4.325a6.429,6.429,0,0,0-2.667,2.558c-.261.475-.44.469-.8.1-.985-1-2-1.981-3.015-2.949-.31-.295-.367-.5-.02-.812.691-.633,1.356-1.294,2.006-1.969a1.147,1.147,0,0,1,.936-.3c1.344.006,2.687.016,4.031,0,.974-.014,1.584-.534,1.618-1.324.036-.823-.593-1.421-1.591-1.478-.5-.029-1-.005-1.571-.005.126-.513.534-.724.819-1.013,2.886-2.926,2.283-1.588,2.356-5.651,0-.25.011-.5-.005-.75a1.4,1.4,0,1,0-2.8-.019,1.584,1.584,0,0,0,0,.468c.505,2.311-.908,3.607-2.64,4.881,0-.559.01-1.042,0-1.524-.026-1.089-.566-1.715-1.448-1.7-.845.019-1.349.622-1.361,1.671-.013,1.218-.035,2.438.011,3.655a1.659,1.659,0,0,1-.583,1.384c-.633.6-1.2,1.276-1.762,1.89-.45-.225-.3-.509-.3-.723-.01-5.374,0-10.748-.012-16.122a13.444,13.444,0,0,1,1.351-6.062,1.621,1.621,0,0,0-.463-2.3C1772.738,516.435,1772.932,515.562,1773.614,515.12Zm5.657,8.164a5.956,5.956,0,1,0,5.933-5.9A6,6,0,0,0,1779.27,523.284Z" transform="translate(-1748.324 -503.106)" fill="#fc6064"/>
      <path id="Path_387" data-name="Path 387" d="M1902.3,523.483a3.209,3.209,0,0,1-3.079,1.434c-3.055-.124-6.119-.06-9.179-.022-.69.008-.892-.158-.887-.872.032-5.246.012-10.492.019-15.739.011-8.476-3.667-14.906-10.762-19.448-.121-.077-.237-.16-.594-.4,4.972.156,9.738-.539,14.275,1.354.227.095.446.207.669.312-.037.265.147.378.33.508a20.458,20.458,0,0,1,4.45,4.05,9.851,9.851,0,0,1,2.3,3.863,1.435,1.435,0,0,0-2.018-.239,18.239,18.239,0,0,0-1.95,1.742,1.373,1.373,0,0,0,1.821,2.041c.6-.443,1.138-.969,1.707-1.454a1.711,1.711,0,0,0,.679-1.466c.481.063.519.505.656.823a21.1,21.1,0,0,1,1.546,8.08C1902.367,513.191,1902.3,518.337,1902.3,523.483ZM1891.8,507.238c-.038,1.28.429,1.936,1.249,2.018.794.079,1.432-.538,1.549-1.519a13.425,13.425,0,0,0,.151-1.669,1.376,1.376,0,0,0-1.318-1.429,1.348,1.348,0,0,0-1.443,1.189C1891.892,506.378,1891.844,506.937,1891.8,507.238Zm-.32-10.759a1.388,1.388,0,0,0,1.2-2.069,9.838,9.838,0,0,0-1.342-1.668,1.327,1.327,0,0,0-1.921-.153,1.4,1.4,0,0,0-.191,1.935,17.287,17.287,0,0,0,1.19,1.437A1.617,1.617,0,0,0,1891.485,496.479Z" transform="translate(-1829.926 -485.629)" fill="#f65b51"/>
      <path id="Path_388" data-name="Path 388" d="M1731.146,703.651h-43.12c-1.374,0-2.03-.39-2.063-1.222-.035-.9.636-1.344,2.057-1.344h86.144a7.19,7.19,0,0,1,.843.021c.777.092,1.335.488,1.3,1.315a1.245,1.245,0,0,1-1.381,1.227c-.281.008-.562,0-.844,0Z" transform="translate(-1683.14 -648.495)" fill="#c97d5e"/>
      <path id="Path_389" data-name="Path 389" d="M1755.765,497.586c-.682.442-.876,1.316-1.556,1.76-1.208-.181-1.549.008-2.067,1.073a16.729,16.729,0,0,0-1.636,7.517c.02,4.343.005,8.686.005,13.03v1.121c-.933-.909-1.7-1.663-2.478-2.413-.208-.2-.168-.459-.168-.7.008-4.062-.121-8.13.061-12.184a18.191,18.191,0,0,1,10.349-16.127,19.505,19.505,0,0,1,25,5.811,18.045,18.045,0,0,1,3.614,10.829c.054,4.186.016,8.374.016,12.56a2.583,2.583,0,0,1-.066.358,21.452,21.452,0,0,0-2.339-2.052c-.355-.24-.225-.623-.225-.95-.008-3.062,0-6.124-.005-9.186A16.95,16.95,0,0,0,1756,495.282C1755.193,495.99,1755.15,496.547,1755.765,497.586Z" transform="translate(-1730.475 -485.573)" fill="#fa8b89"/>
      <path id="Path_390" data-name="Path 390" d="M1725.922,620.223c.332.061.478.326.672.516,4.579,4.482,9.139,8.984,13.746,13.436a3.479,3.479,0,0,1,.814,1.818c.1.356-.113.423-.408.423q-4.594,0-9.189,0a1.428,1.428,0,0,1-.767-.31,12.738,12.738,0,0,1-5-15.669A1.654,1.654,0,0,1,1725.922,620.223Z" transform="translate(-1712.87 -586.634)" fill="#fd9b40"/>
      <path id="Path_391" data-name="Path 391" d="M1888.74,655.778c-1.722,1.826-3.535,3.752-5.353,5.674a13.529,13.529,0,0,0-1.735,1.829.8.8,0,0,1-.8.34c-1.685,0-3.376.076-5.055-.025a9.38,9.38,0,0,1-4.4-1.707,12.762,12.762,0,0,1-5.122-6.111Z" transform="translate(-1821.099 -613.835)" fill="#fa9940"/>
      <path id="Path_392" data-name="Path 392" d="M1843.918,634.53c-2.135,0-4,0-5.868,0-.394,0-.427-.149-.371-.519.552-3.657-.5-5.884-3.6-7.646a.666.666,0,0,1-.4-.81,9.422,9.422,0,0,1,7.916-7.674,9.54,9.54,0,0,1,9.9,4.9c.52,1.035.52,1.037-.627,1.038q-4.824,0-9.647,0c-2.512,0-3.49,1.4-2.6,3.721a15.207,15.207,0,0,0,4.4,6.182C1843.257,633.928,1843.48,634.137,1843.918,634.53Z" transform="translate(-1796.145 -584.759)" fill="#50bc7c"/>
      <path id="Path_393" data-name="Path 393" d="M1946.809,636.055l16.632-16.307a11.6,11.6,0,0,1,1.128,6.022c-.115,1.5-.179,1.5-1.641,1.411a6.771,6.771,0,0,0-7.212,8.217c.1.488.1.669-.463.665C1952.538,636.044,1949.823,636.055,1946.809,636.055Z" transform="translate(-1882.714 -586.27)" fill="#fbb158"/>
      <path id="Path_394" data-name="Path 394" d="M1948.481,503.952a9.854,9.854,0,0,0-2.3-3.863,20.459,20.459,0,0,0-4.45-4.05c-.183-.13-.367-.242-.33-.508a18.556,18.556,0,0,1,9.531,8.589,18.786,18.786,0,0,1,2.266,9.259c-.007,4.059-.031,8.119.021,12.178a2.357,2.357,0,0,1-.909,2.094c-.487.383-.917.839-1.372,1.262,0-5.145.068-10.291-.02-15.435a21.105,21.105,0,0,0-1.546-8.08c-.137-.318-.175-.761-.656-.823Z" transform="translate(-1878.572 -491.06)" fill="#d24e4a"/>
      <path id="Path_395" data-name="Path 395" d="M2008.156,545.391q2.013,0,4.026,0c1.644,0,1.9-.2,2.3-1.8a2.121,2.121,0,0,1,2.206-1.747,2.191,2.191,0,0,1,2.129,1.867,2.062,2.062,0,0,1-.56,1.713c-.823,1.008-.815,1.439,0,2.443a1.98,1.98,0,0,1,.285,2.493,2.124,2.124,0,0,1-2.217,1.067,2.085,2.085,0,0,1-1.837-1.722c-.4-1.617-.639-1.8-2.293-1.8-2.746,0-5.493-.024-8.238.017-.667.01-.889-.143-.944-.841-.134-1.687-.181-1.683,1.5-1.683Z" transform="translate(-1925.66 -526.545)" fill="#fceeb8"/>
      <path id="Path_396" data-name="Path 396" d="M1809.361,669.359c-.9,0-1.809-.035-2.71.013a.912.912,0,0,1-.986-.644,3.9,3.9,0,0,1,.868-4.3,4.136,4.136,0,0,1,4.675-.72,3.851,3.851,0,0,1,2.178,3.8,4.8,4.8,0,0,1-.132.828c-.21.654-.5,1.151-1.373,1.044A20.816,20.816,0,0,0,1809.361,669.359Z" transform="translate(-1774.483 -619.576)" fill="#8ce392"/>
      <path id="Path_397" data-name="Path 397" d="M1999.892,669.355c-.841,0-1.686-.045-2.523.015a1.027,1.027,0,0,1-1.177-.777,3.879,3.879,0,0,1,1.314-4.5,4.106,4.106,0,0,1,5.1.145,3.856,3.856,0,0,1,1.074,4.483.909.909,0,0,1-.984.645C2001.763,669.32,2000.827,669.355,1999.892,669.355Z" transform="translate(-1920.297 -619.572)" fill="#8ce392"/>
      <path id="Path_398" data-name="Path 398" d="M1805.681,543.18a5.956,5.956,0,1,1,5.976,5.854A5.984,5.984,0,0,1,1805.681,543.18Zm5.947,3.04a3.062,3.062,0,1,0-3.134-3.068A3.136,3.136,0,0,0,1811.628,546.22Z" transform="translate(-1774.735 -523.058)" fill="#040202"/>
      <path id="Path_399" data-name="Path 399" d="M1957.267,529.561l.24.623a1.711,1.711,0,0,1-.679,1.466c-.569.485-1.107,1.011-1.707,1.454a1.373,1.373,0,0,1-1.821-2.041,18.283,18.283,0,0,1,1.95-1.742A1.435,1.435,0,0,1,1957.267,529.561Z" transform="translate(-1887.358 -516.71)" fill="#040202"/>
      <path id="Path_400" data-name="Path 400" d="M1937.345,560.009c.039-.3.087-.861.188-1.41a1.348,1.348,0,0,1,1.443-1.189,1.376,1.376,0,0,1,1.317,1.429,13.5,13.5,0,0,1-.151,1.669c-.117.981-.755,1.6-1.549,1.519C1937.774,561.944,1937.307,561.289,1937.345,560.009Z" transform="translate(-1875.467 -538.463)" fill="#040202"/>
      <path id="Path_401" data-name="Path 401" d="M1927.67,508.9a1.618,1.618,0,0,1-1.068-.518,17.271,17.271,0,0,1-1.19-1.437,1.4,1.4,0,0,1,.191-1.935,1.327,1.327,0,0,1,1.921.152,9.833,9.833,0,0,1,1.343,1.668A1.388,1.388,0,0,1,1927.67,508.9Z" transform="translate(-1866.111 -498.053)" fill="#040202"/>
      <path id="Path_402" data-name="Path 402" d="M1820.79,555.383a3.062,3.062,0,1,1,3.145-3.057A3.148,3.148,0,0,1,1820.79,555.383Z" transform="translate(-1783.897 -532.225)" fill="#faecb6"/>
    </g>
  </g>
</svg>
