<svg xmlns="http://www.w3.org/2000/svg" width="24" height="24" viewBox="0 0 24 24">
  <g id="favorite_black_24dp_2_" data-name="favorite_black_24dp (2)" transform="translate(0)">
    <path id="Path_1349" data-name="Path 1349" d="M0,0H24V24H0Z" fill="none"/>
    <path id="Path_1350" data-name="Path 1350" d="M15.615,24.356a2.328,2.328,0,0,1-3.227-.012l-.132-.125C5.959,18.3,1.845,14.42,2,9.583A6.878,6.878,0,0,1,4.808,4.234,6.772,6.772,0,0,1,14,5.606a6.759,6.759,0,0,1,9.188-1.371,6.878,6.878,0,0,1,2.807,5.348c.168,4.837-3.958,8.714-10.256,14.661l-.12.112Z" transform="translate(-1.997 -1.999)" fill="#434242"/>
  </g>
</svg>
