<svg id="Group_840" data-name="Group 840" xmlns="http://www.w3.org/2000/svg" width="10" height="10" viewBox="0 0 10 10">
  <g id="Group_227" data-name="Group 227" transform="translate(0.234 0.845)">
    <g id="Group_226" data-name="Group 226">
      <path id="Path_230" data-name="Path 230" d="M968,974.588a.607.607,0,0,1,.31-.454.761.761,0,0,1,.3-.071q1.7-.008,3.394,0a2.907,2.907,0,0,1,2.171.942,3.234,3.234,0,0,1,.876,1.852,4.884,4.884,0,0,1,.037.614c0,.96,0,1.919,0,2.879a.6.6,0,0,1-.4.621.555.555,0,0,1-.717-.509c-.006-.058-.008-.116-.008-.174,0-.96,0-1.919,0-2.879a2.135,2.135,0,0,0-.669-1.638,1.725,1.725,0,0,0-1.187-.5c-.978-.009-1.955,0-2.933,0-.015,0-.031,0-.06,0v.143q0,3.254,0,6.508a.641.641,0,0,1-.283.6.541.541,0,0,1-.8-.328c-.01-.032-.022-.063-.032-.1Z" transform="translate(-968 -974.058)" fill="#db242c"/>
      <path id="Path_231" data-name="Path 231" d="M991.457,981.417v-.145q0-3.255,0-6.509a.642.642,0,0,1,.261-.581.551.551,0,0,1,.851.428,1.017,1.017,0,0,1,.006.134q0,3.609,0,7.219a.6.6,0,0,1-.413.638.765.765,0,0,1-.208.026q-1.687,0-3.375,0a2.912,2.912,0,0,1-2.187-.95,3.237,3.237,0,0,1-.869-1.846,4.775,4.775,0,0,1-.037-.594c0-.963,0-1.926,0-2.89a.608.608,0,0,1,.408-.634.556.556,0,0,1,.7.5c.006.061.009.123.009.185q0,1.445,0,2.89a2.1,2.1,0,0,0,.821,1.754,1.615,1.615,0,0,0,.98.369c1,.012,1.994.006,2.991.008A.56.56,0,0,0,991.457,981.417Z" transform="translate(-982.814 -974.083)" fill="#db242c"/>
    </g>
  </g>
  <rect id="Rectangle_191" data-name="Rectangle 191" width="10" height="10" fill="none"/>
</svg>
