<svg xmlns="http://www.w3.org/2000/svg" width="394" height="123" viewBox="0 0 394 123">
  <g id="Group_1213" data-name="Group 1213" transform="translate(-602 4)">
    <g id="Group_1156" data-name="Group 1156" transform="translate(6499 -1654)">
      <g id="Union_2" data-name="Union 2" transform="translate(-5897 1649.574)" fill="#fff">
        <path d="M 389.9996948242188 122.9260025024414 L 3.999606847763062 122.9260025024414 C 2.069906711578369 122.9260025024414 0.5000067949295044 121.3561019897461 0.5000067949295044 119.426399230957 L 0.5000067949295044 13.42620182037354 C 0.5000067949295044 11.49600124359131 2.069906711578369 9.925701141357422 3.999606847763062 9.925701141357422 L 306.7752990722656 9.925701141357422 L 306.9304504394531 9.925701141357422 L 307.058349609375 9.837851524353027 L 319.6507568359375 1.189751505851746 C 319.9019470214844 1.017101526260376 320.1954956054688 0.9259515404701233 320.4999084472656 0.9259515404701233 C 320.8043212890625 0.9259515404701233 321.0978698730469 1.017101526260376 321.3489074707031 1.189651489257812 L 333.9414672851562 9.837851524353027 L 334.0693664550781 9.925701141357422 L 334.2245178222656 9.925701141357422 L 389.9996948242188 9.925701141357422 C 391.9299011230469 9.925701141357422 393.5002136230469 11.49600124359131 393.5002136230469 13.42620182037354 L 393.5002136230469 119.426399230957 C 393.5002136230469 121.3561019897461 391.9299011230469 122.9260025024414 389.9996948242188 122.9260025024414 Z" stroke="none"/>
        <path d="M 389.9996948242188 122.4260025024414 C 391.6542053222656 122.4260025024414 393.0002136230469 121.0803985595703 393.0002136230469 119.426399230957 L 393.0002136230469 13.42620182037354 C 393.0002136230469 11.77170181274414 391.6542053222656 10.42570114135742 389.9996948242188 10.42570114135742 L 333.9142150878906 10.42570114135742 L 321.0656433105469 1.601701498031616 C 320.8984069824219 1.486751556396484 320.7027587890625 1.425951480865479 320.4999084472656 1.425951480865479 C 320.2970581054688 1.425951480865479 320.1014099121094 1.486751556396484 319.9338073730469 1.601901531219482 L 307.0856018066406 10.42570114135742 L 3.999606847763062 10.42570114135742 C 2.345606803894043 10.42570114135742 1.000006794929504 11.77170181274414 1.000006794929504 13.42620182037354 L 1.000006794929504 119.426399230957 C 1.000006794929504 121.0803985595703 2.345606803894043 122.4260025024414 3.999606847763062 122.4260025024414 L 389.9996948242188 122.4260025024414 M 389.9996948242188 123.4260025024414 L 3.999606847763062 123.4260025024414 C 1.791006803512573 123.4260025024414 6.811523235228378e-06 121.6350021362305 6.811523235228378e-06 119.426399230957 L 6.811523235228378e-06 13.42620182037354 C 6.811523235228378e-06 11.21670150756836 1.791006803512573 9.425701141357422 3.999606847763062 9.425701141357422 L 306.7752990722656 9.425701141357422 L 319.3677062988281 0.7776015400886536 C 320.0498962402344 0.3087015748023987 320.9499206542969 0.3087015748023987 321.6321105957031 0.7776015400886536 L 334.2245178222656 9.425701141357422 L 389.9996948242188 9.425701141357422 C 392.2091979980469 9.425701141357422 394.0002136230469 11.21670150756836 394.0002136230469 13.42620182037354 L 394.0002136230469 119.426399230957 C 394.0002136230469 121.6350021362305 392.2091979980469 123.4260025024414 389.9996948242188 123.4260025024414 Z" stroke="none" fill="#eee"/>
      </g>
    </g>
  </g>
</svg>
